<svg width="25" height="25" viewBox="0 0 25 25" fill="none" xmlns="http://www.w3.org/2000/svg">
<path fill-rule="evenodd" clip-rule="evenodd" d="M3.24902 12.4568C3.24902 12.1807 3.47288 11.9568 3.74902 11.9568L19.749 11.9568C20.0252 11.9568 20.249 12.1807 20.249 12.4568C20.249 12.733 20.0252 12.9568 19.749 12.9568L3.74902 12.9568C3.47288 12.9568 3.24902 12.733 3.24902 12.4568Z" fill="#333333"/>
<path fill-rule="evenodd" clip-rule="evenodd" d="M15.8955 8.60326C16.0907 8.408 16.4073 8.408 16.6026 8.60326L20.4561 12.4568L16.6026 16.3104C16.4073 16.5056 16.0907 16.5056 15.8955 16.3104C15.7002 16.1151 15.7002 15.7985 15.8955 15.6033L19.0419 12.4568L15.8955 9.31037C15.7002 9.11511 15.7002 8.79853 15.8955 8.60326Z" fill="#333333"/>
</svg>
