<svg width="20" height="20" viewBox="0 0 20 20" fill="none" xmlns="http://www.w3.org/2000/svg">
<path d="M15.515 6.21833L5.33587 1.7375C5.13171 1.6475 4.90171 1.64417 4.69421 1.72417C4.48754 1.80667 4.32171 1.96667 4.23421 2.17167L1.73421 8.005C1.55254 8.4275 1.74921 8.9175 2.17171 9.09917L7.96921 11.5833L6.93587 14.1667H3.33337V11.6667H1.66671V15V18.3333H3.33337V15.8333H6.93587C7.62171 15.8333 8.22921 15.4217 8.48254 14.785L9.50087 12.24L12.35 13.4608C12.7717 13.6417 13.2592 13.4483 13.4425 13.0292L15.9425 7.315C16.1267 6.89333 15.935 6.40417 15.515 6.21833Z" fill="black"/>
<path d="M16.6079 13.6432L15.0602 13.0247L16.7254 8.85759L18.2731 9.47606L16.6079 13.6432Z" fill="black"/>
</svg>
