<svg width="46" height="40" viewBox="0 0 46 40" fill="none" xmlns="http://www.w3.org/2000/svg">
<mask id="path-1-inside-1_2041_902" fill="white">
<path fill-rule="evenodd" clip-rule="evenodd" d="M23.1543 39.3086L23.1544 39.3087L40.1259 22.3372L40.1258 22.3371L41.8229 20.64C46.5095 15.9535 46.5095 8.3551 41.8229 3.66856C37.1364 -1.01798 29.538 -1.01798 24.8515 3.66856L23.1543 5.36566L21.4573 3.66857C16.7707 -1.01797 9.17232 -1.01797 4.48578 3.66858C-0.20076 8.35512 -0.200764 15.9535 4.48578 20.64L6.18287 22.3371L6.18283 22.3372L23.1543 39.3087L23.1543 39.3086Z"/>
</mask>
<path d="M23.1544 39.3087L20.326 42.1371L23.1544 44.9655L25.9828 42.1371L23.1544 39.3087ZM23.1543 39.3086L25.9828 36.4802L23.1543 33.6518L20.3259 36.4802L23.1543 39.3086ZM40.1259 22.3372L42.9543 25.1656L45.7827 22.3372L42.9543 19.5088L40.1259 22.3372ZM40.1258 22.3371L37.2974 19.5087L34.469 22.3371L37.2974 25.1656L40.1258 22.3371ZM24.8515 3.66856L22.023 0.84013L24.8515 3.66856ZM23.1543 5.36566L20.3259 8.19409L23.1543 11.0225L25.9828 8.19409L23.1543 5.36566ZM21.4573 3.66857L24.2857 0.840146L24.2857 0.840145L21.4573 3.66857ZM4.48578 3.66858L1.65735 0.84015L4.48578 3.66858ZM4.48578 20.64L7.3142 17.8116L4.48578 20.64ZM6.18287 22.3371L9.0113 25.1656L11.8397 22.3371L9.0113 19.5087L6.18287 22.3371ZM6.18283 22.3372L3.3544 19.5088L0.525971 22.3372L3.3544 25.1656L6.18283 22.3372ZM23.1543 39.3087L20.3259 42.1371L23.1543 44.9655L25.9827 42.1371L23.1543 39.3087ZM25.9828 36.4802L25.9828 36.4802L20.3259 42.137L20.326 42.1371L25.9828 36.4802ZM37.2974 19.5088L20.326 36.4802L25.9828 42.1371L42.9543 25.1656L37.2974 19.5088ZM37.2974 25.1656L37.2974 25.1656L42.9543 19.5088L42.9542 19.5087L37.2974 25.1656ZM38.9945 17.8116L37.2974 19.5087L42.9542 25.1656L44.6513 23.4685L38.9945 17.8116ZM38.9945 6.49699C42.1189 9.62143 42.1189 14.6872 38.9945 17.8116L44.6513 23.4685C50.9 17.2198 50.9 7.08877 44.6513 0.840135L38.9945 6.49699ZM27.6799 6.49698C30.8043 3.37254 35.87 3.37254 38.9945 6.49699L44.6513 0.840135C38.4027 -5.4085 28.2717 -5.40851 22.023 0.84013L27.6799 6.49698ZM25.9828 8.19409L27.6799 6.49698L22.023 0.84013L20.3259 2.53724L25.9828 8.19409ZM18.6288 6.497L20.3259 8.19409L25.9828 2.53724L24.2857 0.840146L18.6288 6.497ZM7.31421 6.497C10.4387 3.37256 15.5044 3.37256 18.6288 6.497L24.2857 0.840145C18.037 -5.40849 7.90599 -5.40849 1.65735 0.84015L7.31421 6.497ZM7.3142 17.8116C4.18976 14.6872 4.18976 9.62145 7.31421 6.497L1.65735 0.84015C-4.59128 7.08879 -4.59129 17.2198 1.65735 23.4685L7.3142 17.8116ZM9.0113 19.5087L7.3142 17.8116L1.65735 23.4685L3.35444 25.1656L9.0113 19.5087ZM9.01125 25.1656L9.0113 25.1656L3.35444 19.5087L3.3544 19.5088L9.01125 25.1656ZM25.9827 36.4802L9.01125 19.5088L3.3544 25.1656L20.3259 42.1371L25.9827 36.4802ZM20.3259 36.4802L20.3259 36.4802L25.9827 42.1371L25.9828 42.137L20.3259 36.4802Z" fill="black" mask="url(#path-1-inside-1_2041_902)"/>
</svg>
