<svg width="46" height="40" viewBox="0 0 46 40" fill="none" xmlns="http://www.w3.org/2000/svg">
<mask id="path-1-inside-1_2041_960" fill="white">
<path fill-rule="evenodd" clip-rule="evenodd" d="M23.1539 39.3085L23.1539 39.3086L40.1254 22.3371L40.1253 22.3371L41.8224 20.64C46.509 15.9534 46.509 8.35504 41.8224 3.6685C37.1359 -1.01804 29.5375 -1.01804 24.851 3.6685L23.1539 5.3656L21.4568 3.66851C16.7702 -1.01803 9.17184 -1.01803 4.48529 3.66852C-0.201248 8.35506 -0.201252 15.9534 4.48529 20.64L6.18238 22.3371L6.18234 22.3371L23.1538 39.3086L23.1539 39.3085Z"/>
</mask>
<path d="M23.1539 39.3086L20.3255 42.137L23.1539 44.9655L25.9823 42.137L23.1539 39.3086ZM23.1539 39.3085L25.9823 36.4801L23.1539 33.6517L20.3254 36.4801L23.1539 39.3085ZM40.1254 22.3371L42.9538 25.1656L45.7822 22.3371L42.9538 19.5087L40.1254 22.3371ZM40.1253 22.3371L37.2969 19.5086L34.4685 22.3371L37.2969 25.1655L40.1253 22.3371ZM24.851 3.6685L27.6794 6.49692L24.851 3.6685ZM23.1539 5.3656L20.3254 8.19403L23.1539 11.0225L25.9823 8.19403L23.1539 5.3656ZM21.4568 3.66851L24.2852 0.840085L24.2852 0.840084L21.4568 3.66851ZM4.48529 3.66852L1.65687 0.840089L4.48529 3.66852ZM4.48529 20.64L1.65686 23.4684L4.48529 20.64ZM6.18238 22.3371L9.01081 25.1655L11.8392 22.3371L9.01081 19.5086L6.18238 22.3371ZM6.18234 22.3371L3.35391 19.5087L0.525483 22.3371L3.35391 25.1655L6.18234 22.3371ZM23.1538 39.3086L20.3254 42.137L23.1538 44.9655L25.9822 42.137L23.1538 39.3086ZM25.9823 36.4802L25.9823 36.4801L20.3254 42.137L20.3255 42.137L25.9823 36.4802ZM37.297 19.5087L20.3255 36.4802L25.9823 42.137L42.9538 25.1656L37.297 19.5087ZM37.2969 25.1655L37.297 25.1656L42.9538 19.5087L42.9538 19.5086L37.2969 25.1655ZM38.994 17.8115L37.2969 19.5086L42.9538 25.1655L44.6509 23.4684L38.994 17.8115ZM38.994 6.49693C42.1184 9.62137 42.1184 14.6871 38.994 17.8115L44.6509 23.4684C50.8995 17.2198 50.8995 7.08871 44.6509 0.840074L38.994 6.49693ZM27.6794 6.49692C30.8038 3.37248 35.8696 3.37248 38.994 6.49693L44.6509 0.840074C38.4022 -5.40856 28.2712 -5.40857 22.0225 0.840069L27.6794 6.49692ZM25.9823 8.19403L27.6794 6.49692L22.0225 0.840069L20.3254 2.53718L25.9823 8.19403ZM18.6283 6.49694L20.3254 8.19403L25.9823 2.53718L24.2852 0.840085L18.6283 6.49694ZM7.31372 6.49694C10.4382 3.3725 15.5039 3.3725 18.6283 6.49694L24.2852 0.840084C18.0365 -5.40855 7.9055 -5.40855 1.65687 0.840089L7.31372 6.49694ZM7.31372 17.8116C4.18927 14.6871 4.18927 9.62139 7.31372 6.49694L1.65687 0.840089C-4.59177 7.08873 -4.59178 17.2198 1.65686 23.4684L7.31372 17.8116ZM9.01081 19.5086L7.31372 17.8116L1.65686 23.4684L3.35396 25.1655L9.01081 19.5086ZM9.01076 25.1655L9.01081 25.1655L3.35396 19.5086L3.35391 19.5087L9.01076 25.1655ZM25.9822 36.4802L9.01076 19.5087L3.35391 25.1655L20.3254 42.137L25.9822 36.4802ZM20.3254 36.4801L20.3254 36.4802L25.9822 42.137L25.9823 42.137L20.3254 36.4801Z" fill="black" mask="url(#path-1-inside-1_2041_960)"/>
</svg>
