<svg width="15" height="15" viewBox="0 0 15 15" fill="none" xmlns="http://www.w3.org/2000/svg">
<g clip-path="url(#clip0_2041_596)">
<path d="M13.6364 5.45455H9.54545V1.36364C9.49309 0.633273 8.91218 0.0523636 8.18182 0H6.81818C6.08782 0.0523636 5.50691 0.633273 5.45455 1.36364V5.45455H1.36364C0.633273 5.50691 0.0523636 6.08782 0 6.81818V8.18182C0.0523636 8.91218 0.633273 9.49309 1.36364 9.54545H5.45455V13.6364C5.50691 14.3667 6.08782 14.9476 6.81818 15H8.18182C8.91218 14.9476 9.49309 14.3667 9.54545 13.6364V9.54545H13.6364C14.3667 9.49309 14.9476 8.91218 15 8.18182V6.81818C15 6.06505 14.3895 5.45455 13.6364 5.45455Z" fill="black"/>
</g>
<defs>
<clipPath id="clip0_2041_596">
<rect width="15" height="15" fill="white"/>
</clipPath>
</defs>
</svg>
