<svg width="18" height="18" viewBox="0 0 18 18" fill="none" xmlns="http://www.w3.org/2000/svg">
<path d="M6.59982 1.20001L7.19982 2.40001H13.1998L13.7998 1.20001H6.59982ZM7.19982 3.00001V4.50001C7.19982 4.50001 7.19982 7.80001 10.1998 7.80001C13.1998 7.80001 13.1998 4.50001 13.1998 4.50001V3.00001H7.19982ZM2.3811 4.78357C1.7193 4.79389 1.1907 5.33821 1.19982 6.00001V10.8C1.1997 11.5678 1.91046 12.1383 2.65998 11.9719L5.99982 11.2289V16.8L13.0545 8.48437C12.8867 8.43529 12.7135 8.40001 12.5295 8.40001H7.79982L3.59982 9.30469V6.00001C3.60906 5.32345 3.05754 4.77301 2.3811 4.78357ZM14.0974 9.25309L7.69434 16.8H14.3998V10.2703C14.3998 9.89413 14.2871 9.54577 14.0974 9.25309Z" fill="black"/>
</svg>
