<svg width="16" height="16" viewBox="0 0 16 16" fill="none" xmlns="http://www.w3.org/2000/svg">
<g clip-path="url(#clip0_2041_594)">
<path d="M13.091 15.2727C13.091 15.6743 12.7653 16 12.3637 16C12.0984 15.9958 11.8574 15.8444 11.7383 15.6073L11.1855 14.5455H4.81463L4.27645 15.6218C4.15093 15.8579 3.9038 16.0039 3.63645 16C3.23485 16 2.90918 15.6743 2.90918 15.2727C2.91238 15.1495 2.94743 15.0292 3.011 14.9236L4.46554 12.0145C4.5886 11.783 4.82889 11.6378 5.091 11.6364C5.49114 11.6022 5.84329 11.8989 5.87747 12.2991C5.88794 12.4207 5.86758 12.543 5.81827 12.6545L5.54191 13.0909H10.4583L10.1819 12.6545C10.0351 12.2807 10.2191 11.8586 10.593 11.7117C10.9295 11.5795 11.3122 11.7148 11.491 12.0291L12.9455 14.9382C13.0222 15.0352 13.0724 15.1505 13.091 15.2727ZM11.6365 0H4.36373C3.56038 0 2.90918 0.6512 2.90918 1.45455V8.72727C2.90918 9.53062 3.56038 10.1818 4.36373 10.1818H11.6365C12.4398 10.1818 13.091 9.53062 13.091 8.72727V1.45455C13.091 0.6512 12.4398 0 11.6365 0ZM5.091 8.72727C4.6894 8.72727 4.36373 8.4016 4.36373 8C4.36373 7.5984 4.6894 7.27273 5.091 7.27273C5.4926 7.27273 5.81827 7.5984 5.81827 8C5.81827 8.4016 5.4926 8.72727 5.091 8.72727ZM5.091 5.81818C4.6894 5.81818 4.36373 5.49251 4.36373 5.09091V2.18182C4.36373 1.78022 4.6894 1.45455 5.091 1.45455H7.69463V5.81818H5.091ZM10.9092 8.72727C10.5076 8.72727 10.1819 8.4016 10.1819 8C10.1819 7.5984 10.5076 7.27273 10.9092 7.27273C11.3108 7.27273 11.6365 7.5984 11.6365 8C11.6365 8.4016 11.3108 8.72727 10.9092 8.72727ZM11.6365 5.09091C11.6365 5.49251 11.3108 5.81818 10.9092 5.81818H8.27645V1.45455H10.9092C11.3108 1.45455 11.6365 1.78022 11.6365 2.18182V5.09091Z" fill="black"/>
</g>
<defs>
<clipPath id="clip0_2041_594">
<rect width="16" height="16" fill="white"/>
</clipPath>
</defs>
</svg>
